PathFileType	4	(X/Y/Z)	12_2_79_p1_0-395_filt_butterworth.trc
DataRate	CameraRate	NumFrames	NumMarkers	Units	OrigDataRate	OrigDataStartFrame	OrigNumFrames
59.0	59.0	7	27	m	59.0	246	395
Frame#	Time	RHip			RKnee			RAnkle			RBigToe			RSmallToe			RHeel			LHip			LKnee			LAnkle			LBigToe			LSmallToe			LHeel			Neck			Head			Nose			RShoulder			RElbow			RWrist			RThumb			RIndex			RPinky			LShoulder			LElbow			LWrist			LThumb			LIndex			LPinky			
		X1	Y1	Z1	X2	Y2	Z2	X3	Y3	Z3	X4	Y4	Z4	X5	Y5	Z5	X6	Y6	Z6	X7	Y7	Z7	X8	Y8	Z8	X9	Y9	Z9	X10	Y10	Z10	X11	Y11	Z11	X12	Y12	Z12	X13	Y13	Z13	X14	Y14	Z14	X15	Y15	Z15	X16	Y16	Z16	X17	Y17	Z17	X18	Y18	Z18	X19	Y19	Z19	X20	Y20	Z20	X21	Y21	Z21	X22	Y22	Z22	X23	Y23	Z23	X24	Y24	Z24	X25	Y25	Z25	X26	Y26	Z26	X27	Y27	Z27	
246	4.169491525423729	0.43422723671768704	0.5241414730959565	1.0631701502178081	0.4812220986784763	0.5564171006752109	1.5037200906449915	0.4903801836621243	0.6121596390057688	1.921797487538717	0.4743791185585737	0.3785476671402437	1.926380332058137	0.5315288191543391	0.4197887272953765	1.9271513840293768	0.4726992178393702	0.66883886815389	2.004687547548595	0.21542352571004672	0.5443540182412944	1.1072227820542466	0.2593192173571848	0.5495778122203401	1.5381402283438272	0.3121009307412948	0.5871018239821717	1.942889968199197	0.32851665764927346	0.3957451449788954	1.9612372166821768	0.25968837224366487	0.43214730457250794	1.9502876867503807	0.33199897232971554	0.6337570747210081	1.9942588146625018	0.24735317892398573	0.5700263197147604	0.45973539339209724	0.24143848739242807	0.48524579039102345	0.17915059804945593	0.25607527376491857	0.45393849888659227	0.3270759405110231	0.4363958372782887	0.5665806614110678	0.5239028023610622	0.494234993381454	0.5170866793605249	0.8048437948458363	0.3938260021730313	0.34759947489183113	1.0019511273676076	0.3273376010860823	0.3199211746831105	1.0642339679042467	0.3245199193618829	0.3426856212950239	1.1043747911539998	0.32231143077815455	0.378472879290337	1.1137204113814143	0.091113449658216	0.5943204784380848	0.5571106426262101	0.08058010030919796	0.5016929410549538	0.8373435445956666	0.2746385835456274	0.38312632524061907	1.008003581892884	0.3706916093275253	0.32812892847396086	1.0434502187525316	0.3826054037034593	0.3168562698708548	1.0847645110830335	0.3442872030423928	0.3658893535652075	1.1143798562257519
247	4.186440677966102	0.43428263574948567	0.5240762675603721	1.062952441795077	0.4812186256430471	0.556375455519033	1.5035628568354662	0.4901663218143034	0.6126504363287455	1.9208914125015357	0.47438975119487486	0.3785476050561335	1.9263810097247225	0.5309694475299833	0.418871348308832	1.9257767007270994	0.47269691552091053	0.6686950611922557	2.005903798855618	0.21561222658787077	0.5440002745137842	1.1079738297546236	0.25988787911670075	0.5498299200085103	1.5381586339939182	0.3121093023823882	0.5871293128881573	1.9429005349112276	0.3285190632215117	0.39568274135455617	1.9611796228959744	0.25969254397273267	0.4321260828605112	1.9503444437240145	0.33221290562567396	0.6335442495987875	1.9942185738192053	0.24677152254348073	0.5735809357910848	0.4593901535113045	0.24176052459238861	0.4878134118136158	0.17882446376418473	0.25552970231328076	0.453854168079256	0.3239369340413607	0.43623311532779413	0.5666939116529855	0.5229759374193935	0.49414380672692987	0.5170596858000998	0.8045169413229434	0.3959225510211544	0.34724926172414144	1.0005468093237733	0.32748076294409756	0.32732310200848236	1.067327858111402	0.3246489928639523	0.34275008422196085	1.1037374442961603	0.32162445787180033	0.37768810100845407	1.114165973885864	0.090591671276823	0.5955789747373392	0.5571082033324058	0.08086475248698027	0.5030075536475982	0.8377158929003549	0.27602961592322184	0.37891892167242275	1.007836706813326	0.3709302956595232	0.33251023590260137	1.0442547997399623	0.382955951914476	0.3185056424275292	1.0849289897578327	0.3442759993198248	0.3659819016863503	1.1145154739749557
248	4.203389830508475	0.4343436836132906	0.5238967022526226	1.0626660569615642	0.48118372674329885	0.5563318191469282	1.5033117406668868	0.4898965411959879	0.6132956628080786	1.919732132357918	0.4743878582963199	0.37851827454501363	1.9263555015949982	0.5308289154659694	0.4185074339530098	1.924369757687583	0.472739618275805	0.6683132494697848	2.007571270514056	0.21582498005926812	0.543503033786034	1.1094719797283297	0.26004448942750275	0.5497620683532782	1.5381865363503442	0.31212263289254816	0.5871713854477237	1.942863063455356	0.3284922976502592	0.39555699370919734	1.9610978956829719	0.25970038282734015	0.432095765038447	1.950385907941361	0.33229157504841345	0.6330367138057352	1.9937985596494783	0.24553132339766545	0.5783923005662657	0.4583820425166276	0.24173214669128854	0.49206682950108777	0.17804857877296812	0.25509471931448574	0.4537748133641722	0.3213127046508332	0.4361712340683502	0.5667180080453035	0.522615458200139	0.4940611104595918	0.5169932682385451	0.8035993008905234	0.39680396577110566	0.34741974241967266	1.0000299835496795	0.32817253102076194	0.3339380149355244	1.0718819509300437	0.3246099960740776	0.3430722213870713	1.1036758057953266	0.32037011890475914	0.37529663333847185	1.1152061643906908	0.09061157644810161	0.5954280931635737	0.5569227072188628	0.08141466608724077	0.5026379759977949	0.8376467520958405	0.277709973903329	0.37380037366822483	1.0068311476607552	0.3717321821206982	0.3341949316672982	1.0457243498987683	0.38386972795247654	0.32143019476750057	1.0853793903119404	0.34430281580171995	0.36582818692963714	1.1144339647930446
249	4.220338983050848	0.4343965368746916	0.5236427723585728	1.0623764736956314	0.48110082805334176	0.5563453674271193	1.5028283362673953	0.48969809709282486	0.6137770022923709	1.918881584740413	0.47438427635126484	0.3784707706993338	1.9263107950575329	0.5305285484138647	0.4171408083875416	1.923167471230644	0.4725836064757931	0.6674703836936308	2.0086442517282515	0.2159392040413114	0.5431129827597428	1.1114462541653933	0.2595328456537828	0.5493687214010373	1.5383924257365866	0.31212882879437315	0.5871917724000835	1.9427061278285633	0.3284528197426785	0.39548799776500954	1.9610912609208233	0.25971497402456417	0.4320570518045475	1.9503824286339322	0.33215769070709267	0.6324995981343544	1.99341169706641	0.24386299229620972	0.5821402908004107	0.45634861550037054	0.2410100915810014	0.49625513320606407	0.17681763100131684	0.25477226564342115	0.45401770547929854	0.318857066472508	0.43616065994924635	0.5667034882801647	0.5225963338828377	0.493983646371999	0.5169192517056916	0.802376881116734	0.39672628415400824	0.34770354953122934	1.000080677447603	0.32835249207915473	0.3375786153379708	1.0759633786031284	0.3245365360570184	0.3432402556073887	1.1037470969791427	0.3192283629409974	0.3712306823118441	1.115544450188787	0.09078045045370312	0.5949802555009487	0.5575300728118143	0.08173573856598502	0.501711819988524	0.8378665960575497	0.27891274578630565	0.37023699483781525	1.0057872469019358	0.37324483379123347	0.3339591217858178	1.0474962039181146	0.38513941060341583	0.3248921324176333	1.0863597604797928	0.34435248587635825	0.3655882746965159	1.11388387458522
250	4.237288135593221	0.43433550869307097	0.5237512469058518	1.0623871733168972	0.4809926451180982	0.5565283117212844	1.5021945987168985	0.48961888368706796	0.6139761962328277	1.9185923402022336	0.4743845863416552	0.378413229095459	1.9262548133522175	0.5300556880654683	0.41523773430169875	1.9225502065103315	0.4721098423552963	0.6665576864385411	2.0083536282772436	0.2159239435869063	0.5429710497027821	1.1132954722367103	0.25830854018406274	0.5486798070971177	1.5388993845887065	0.3120928711802387	0.5871829418310313	1.9425220911294236	0.3283823033411575	0.3956099905019981	1.961288036870207	0.25972387924054985	0.43202715567648625	1.9503426997035758	0.33185807197829637	0.6321166646650056	1.9936004094552153	0.24237869236811577	0.5837528806542052	0.4532122009257081	0.2398536427369316	0.49818768466845	0.17537958787225374	0.25453780058048314	0.4543702526774329	0.3165230339328329	0.436168943512711	0.5666911259639038	0.5226271666247149	0.4939061888011025	0.5168757750819821	0.8014326014273618	0.3957363922380873	0.3475228262050193	1.0001878296247675	0.3279744582504949	0.33831604076303035	1.078092239074058	0.32447132682139285	0.34323249179872206	1.1037785460790477	0.31833364788214985	0.3668095248815074	1.11477515894586	0.09092591192132435	0.5948491329197976	0.5593847185474278	0.08185837601545222	0.5011126112584772	0.8387502367916637	0.279349415280335	0.36923545455737217	1.0052980921211172	0.3751926085963072	0.33299081848207135	1.0483808043154843	0.3862133485646735	0.32734635411730467	1.0876793982497925	0.34440950809618703	0.3653869770108972	1.1126792962912821
251	4.254237288135593	0.4339231226131542	0.525230993125718	1.0635556331942675	0.48094414294103777	0.556964981232714	1.5020136655820089	0.4896157703074636	0.6140290977057867	1.9186698199545456	0.47438594850060267	0.3783589501156946	1.926201756401603	0.5297412003077319	0.4140232888901556	1.922416313795972	0.47182520349319096	0.6664028300954201	2.0070401906981807	0.2158633226711689	0.5430121047223088	1.1145104439465627	0.2568263036212761	0.5479073566665528	1.5395633493074228	0.31198601293585987	0.5871871957462103	1.9428254399712561	0.3283047573746691	0.3958770044812228	1.961654460420617	0.2597016914581685	0.4320658351107906	1.9503455547269846	0.33174421592559267	0.6320898078234781	1.9946501787299553	0.24145246842810805	0.5839962040163167	0.4495767646336094	0.23855442979936067	0.49795753087103534	0.1741604260910461	0.25429423363337095	0.4545420318452537	0.3146139183742565	0.4361923642135275	0.5666992934175827	0.5225969226341024	0.4938400368002967	0.5168675210334145	0.8010370928586414	0.3936310464952145	0.34594163385514853	0.999916359401416	0.32762350586686684	0.3374963417023238	1.077438593962069	0.3244282058015678	0.34312994861660473	1.1037450263769255	0.3179511443204628	0.36384871963287946	1.1137319096329348	0.09103143238882415	0.5952458242267417	0.5618720686676935	0.08192796148064527	0.5011964208695705	0.8400549861783004	0.2793220371439472	0.3698324162776954	1.0051718107039638	0.3769268240794788	0.3319657530094171	1.0476284198155374	0.38680320005991026	0.32826782409873145	1.088750881676406	0.344459952545577	0.3652800457866259	1.1111712026892109
252	4.271186440677966	0.43300477426280964	0.5287733675990077	1.0666760834875695	0.48097102875459774	0.5575370153438123	1.5028462313779363	0.48963384835899304	0.6140712652489346	1.9188307125925654	0.47438618910321007	0.3783264495775482	1.9261686634901998	0.5296585352278875	0.4136670496252859	1.922461661664785	0.4721992167638222	0.6671738003014851	2.0060273386417338	0.215839217999359	0.5431052014036829	1.1150409507707741	0.25579159529251355	0.5473680803985524	1.5402953246967925	0.31182795947901537	0.5872224304659743	1.9442257159673795	0.3284353570660434	0.3958167587282043	1.9616553412146245	0.2596355707160662	0.4322601282726381	1.950488238308132	0.3322331862629792	0.6332978562400958	1.9968527178323112	0.241008266700316	0.5839549729920922	0.4465253620051855	0.23726334318547254	0.49692149750600795	0.17348375011187805	0.25375014058405587	0.4545960741650251	0.31337041243900593	0.4362237709058139	0.5667303784159938	0.5225288354871156	0.49380403529891204	0.516868856452065	0.8010065696534284	0.39096035668285434	0.3424950162261143	0.9990619521029953	0.32752779286447564	0.3363848795885667	1.074552626513683	0.32442077193412483	0.34302162956080484	1.103704378404854	0.31866882458913565	0.3628203973448963	1.1130987751257784	0.0911163713844173	0.5959812715707876	0.5639827283216594	0.08198881205436942	0.5017412258041942	0.8411518357361601	0.2792046701716549	0.37016779456144017	1.0048623544860062	0.3777725175052941	0.330943441339473	1.0457319100823286	0.3869688332463938	0.32813450009696304	1.089094026225411	0.3445056915822725	0.3652835324422909	1.1100667226649379
